<svg xmlns="http://www.w3.org/2000/svg" viewBox="0 0 500 500"><g id="freepik--Screens--inject-78"><rect x="295.03" y="135.41" width="140.13" height="114.16" style="fill:#e0e0e0"></rect><rect x="285.07" y="142.66" width="140.13" height="114.16" style="fill:#ebebeb"></rect><rect x="271.34" y="150.61" width="143.87" height="117.21" style="fill:#fff"></rect><path d="M415.21,267.82s0-.75,0-2.16,0-3.53,0-6.26c0-5.48,0-13.51-.05-23.75,0-20.46-.07-49.73-.12-85l.22.22-143.85,0h0l.26-.26c0,42.38,0,82.4,0,117.21l-.24-.24,104,.12,29.42.06,7.79,0h2l.69,0h-2.64l-7.75,0-29.37.06-104.11.12h-.23v-.23c0-34.81,0-74.83,0-117.21v-.26h.28l143.85,0h.22v.22c-.05,35.36-.09,64.68-.11,85.18,0,10.21-.05,18.23-.06,23.7,0,2.71,0,4.8,0,6.21S415.21,267.82,415.21,267.82Z" style="fill:#263238"></path><path d="M288.88,167.55l-1.55.56,1.55.57v.58l-2.21-.84v-.61l2.21-.84Z" style="fill:#90CAF9"></path><path d="M292.52,166.49v3.25h-.75v-1.33h-1.48v1.33h-.75v-3.25h.75v1.28h1.48v-1.28Z" style="fill:#90CAF9"></path><path d="M294,167.1h-1v-.61h2.83v.61h-1v2.64H294Z" style="fill:#90CAF9"></path><path d="M299.11,169.74v-2l-1,1.6h-.34l-.95-1.56v1.91h-.71v-3.25h.62l1.22,2,1.2-2h.61v3.25Z" style="fill:#90CAF9"></path><path d="M300.58,166.49h.75v2.64H303v.61h-2.38Z" style="fill:#90CAF9"></path><path d="M305.48,167.81v.61l-2.2.84v-.58l1.54-.57-1.54-.56V167Z" style="fill:#90CAF9"></path><path d="M287.57,256.43,286,257l1.55.56v.58l-2.21-.84v-.61l2.21-.84Z" style="fill:#90CAF9"></path><path d="M289.22,254.71h.65l-1.53,4.37h-.65Z" style="fill:#90CAF9"></path><path d="M293,255.37v3.25h-.76v-1.33H290.8v1.33h-.75v-3.25h.75v1.28h1.47v-1.28Z" style="fill:#90CAF9"></path><path d="M294.46,256h-1v-.61h2.82V256h-1v2.64h-.76Z" style="fill:#90CAF9"></path><path d="M299.61,258.62v-1.95l-1,1.61h-.34l-.95-1.57v1.91h-.7v-3.25h.62l1.21,2,1.2-2h.62v3.25Z" style="fill:#90CAF9"></path><path d="M301.08,255.37h.75V258h1.63v.61h-2.38Z" style="fill:#90CAF9"></path><path d="M306,256.69v.61l-2.21.84v-.58l1.55-.56-1.55-.57v-.58Z" style="fill:#90CAF9"></path><path d="M299.07,176.44l-1.65.63,1.65.64v.38l-2.08-.82v-.4l2.08-.82Z"></path><path d="M302.65,175.45v3.25h-.46v-1.45h-1.86v1.45h-.47v-3.25h.47v1.4h1.86v-1.4Z"></path><path d="M306,178.29v.41h-2.36v-3.25h2.3v.4h-1.83v1h1.63v.39h-1.63v1Z"></path><path d="M308.8,177.88h-1.73l-.35.82h-.48l1.47-3.25h.46l1.47,3.25h-.49Zm-.16-.37-.7-1.59-.71,1.59Z"></path><path d="M310.12,175.45h1.37a1.63,1.63,0,1,1,0,3.25h-1.37Zm1.34,2.84a1.22,1.22,0,1,0,0-2.44h-.88v2.44Z"></path><path d="M315.85,176.87v.4l-2.08.82v-.38l1.65-.64-1.65-.63v-.39Z"></path><path d="M299.07,187.56l-1.65.63,1.65.64v.38l-2.08-.82V188l2.08-.82Z"></path><path d="M300.51,187h-1.12v-.4h2.69v.4H301v2.85h-.46Z"></path><path d="M302.58,186.57h.47v3.25h-.47Z"></path><path d="M304.66,187h-1.11v-.4h2.68v.4h-1.11v2.85h-.46Z"></path><path d="M306.74,186.57h.46v2.84H309v.41h-2.22Z"></path><path d="M311.85,189.41v.41h-2.36v-3.25h2.29v.4H310v1h1.63v.4H310v1Z"></path><path d="M314.5,188v.4l-2.08.82v-.38l1.65-.64-1.65-.63v-.39Z"></path><path d="M316.54,186.57H317v2.84h1.76v.41h-2.22Z"></path><path d="M319,188.59a1.28,1.28,0,1,1,1.28,1.26A1.22,1.22,0,0,1,319,188.59Zm2.1,0a.83.83,0,1,0-1.65,0,.83.83,0,1,0,1.65,0Z"></path><path d="M323.46,187.34v.43h-.1a.74.74,0,0,0-.78.83v1.23h-.44v-2.46h.42v.41A.94.94,0,0,1,323.46,187.34Z"></path><path d="M326.19,188.74h-2a.83.83,0,0,0,.89.72.91.91,0,0,0,.71-.3l.24.29a1.34,1.34,0,0,1-2.29-.86,1.21,1.21,0,0,1,1.24-1.25,1.18,1.18,0,0,1,1.21,1.26A.66.66,0,0,1,326.19,188.74Zm-2-.32h1.58a.79.79,0,0,0-1.58,0Z"></path><path d="M330.9,188.4v1.42h-.45v-1.37c0-.48-.23-.71-.63-.71a.71.71,0,0,0-.74.81v1.27h-.45v-1.37c0-.48-.23-.71-.63-.71a.71.71,0,0,0-.74.81v1.27h-.44v-2.46h.42v.37a1,1,0,0,1,.85-.39.91.91,0,0,1,.86.45,1.08,1.08,0,0,1,.94-.45A.94.94,0,0,1,330.9,188.4Z"></path><path d="M332.88,186.6a.29.29,0,0,1,.3-.29.28.28,0,0,1,.3.28.29.29,0,0,1-.3.3A.29.29,0,0,1,332.88,186.6Zm.08.76h.45v2.46H333Z"></path><path d="M336.8,188.59a1.2,1.2,0,0,1-1.24,1.26,1.06,1.06,0,0,1-.86-.4v1.27h-.45v-3.36h.43v.39a1.06,1.06,0,0,1,.88-.41A1.19,1.19,0,0,1,336.8,188.59Zm-.45,0a.83.83,0,1,0-1.66,0,.83.83,0,1,0,1.66,0Z"></path><path d="M337.1,189.56l.19-.35a1.65,1.65,0,0,0,.86.25c.41,0,.59-.12.59-.33,0-.56-1.56-.08-1.56-1.06,0-.44.4-.73,1-.73a1.75,1.75,0,0,1,.89.22l-.19.35a1.31,1.31,0,0,0-.71-.19c-.39,0-.58.14-.58.34,0,.57,1.56.1,1.56,1.06,0,.44-.41.73-1.06.73A1.82,1.82,0,0,1,337.1,189.56Z"></path><path d="M342,187.36v2.46h-.42v-.37a1,1,0,0,1-.84.4,1,1,0,0,1-1.06-1.08v-1.41h.45v1.36c0,.49.24.73.66.73a.72.72,0,0,0,.76-.82v-1.27Z"></path><path d="M347,188.4v1.42h-.44v-1.37c0-.48-.23-.71-.64-.71a.71.71,0,0,0-.73.81v1.27h-.45v-1.37c0-.48-.23-.71-.63-.71a.71.71,0,0,0-.74.81v1.27h-.45v-2.46h.43v.37a1,1,0,0,1,.85-.39.9.9,0,0,1,.85.45,1.11,1.11,0,0,1,.95-.45A.93.93,0,0,1,347,188.4Z"></path><path d="M351,187.56l-1.64.63,1.64.64v.38l-2.07-.82V188l2.07-.82Z"></path><path d="M352.69,185.91h.41l-1.53,4.37h-.41Z"></path><path d="M354.19,187h-1.11v-.4h2.69v.4h-1.12v2.85h-.46Z"></path><path d="M356.27,186.57h.46v3.25h-.46Z"></path><path d="M358.35,187h-1.11v-.4h2.68v.4h-1.11v2.85h-.46Z"></path><path d="M360.43,186.57h.46v2.84h1.76v.41h-2.22Z"></path><path d="M365.54,189.41v.41h-2.36v-3.25h2.29v.4h-1.83v1h1.63v.4h-1.63v1Z"></path><path d="M368.19,188v.4l-2.08.82v-.38l1.65-.64-1.65-.63v-.39Z"></path><path d="M299.07,198.68l-1.65.64,1.65.63v.39l-2.08-.83v-.39l2.08-.83Z"></path><path d="M300.78,197h.4l-1.53,4.37h-.41Z"></path><path d="M304.28,197.69v3.25h-.46v-1.45H302v1.45h-.47v-3.25H302v1.4h1.86v-1.4Z"></path><path d="M307.61,200.53v.41h-2.35v-3.25h2.29v.41h-1.83v1h1.63v.4h-1.63v1Z"></path><path d="M310.43,200.13H308.7l-.35.81h-.48l1.47-3.25h.46l1.47,3.25h-.48Zm-.16-.37-.7-1.6-.7,1.6Z"></path><path d="M311.75,197.69h1.37a1.63,1.63,0,1,1,0,3.25h-1.37Zm1.34,2.84a1.22,1.22,0,1,0,0-2.43h-.87v2.43Z"></path><path d="M317.48,199.12v.39l-2.08.83V200l1.65-.63-1.65-.64v-.39Z"></path><path d="M290.45,208.33l-1.64.64,1.64.63V210l-2.08-.82v-.4l2.08-.82Z"></path><path d="M294,209.71c0,.56-.42.88-1.24.88h-1.55v-3.25h1.45c.75,0,1.17.32,1.17.84a.83.83,0,0,0,.17,1.53Zm-2.33-2v1h1c.48,0,.74-.18.74-.52s-.26-.52-.74-.52Zm1.86,2c0-.38-.28-.55-.79-.55h-1.07v1.08h1.07C293.29,210.21,293.57,210.05,293.57,209.68Z"></path><path d="M294.49,209a1.73,1.73,0,1,1,1.73,1.66A1.65,1.65,0,0,1,294.49,209Zm3,0a1.27,1.27,0,1,0-1.26,1.24A1.22,1.22,0,0,0,297.48,209Z"></path><path d="M298.65,207.34H300a1.63,1.63,0,1,1,0,3.25h-1.37Zm1.34,2.85a1.22,1.22,0,1,0,0-2.44h-.88v2.44Z"></path><path d="M303.58,209.47v1.12h-.46v-1.13l-1.29-2.12h.5l1,1.72,1-1.72h.46Z"></path><path d="M307.24,208.77v.4l-2.08.82v-.39l1.65-.63-1.65-.64V208Z"></path><path d="M290.45,219.45l-1.64.64,1.64.63v.39l-2.08-.82v-.4l2.08-.82Z"></path><path d="M294,218.47v3.24h-.46v-1.44h-1.87v1.44h-.46v-3.24h.46v1.39h1.87v-1.39Z"></path><path d="M295.75,218.47v3.24h-.46v-2.84h-.73v-.4Z"></path><path d="M298.63,219.89v.4l-2.08.82v-.39l1.65-.63-1.65-.64v-.38Z"></path><path d="M300.71,218.47h.34v2.95h1.82v.29h-2.16Z"></path><path d="M303.09,220.49a1.24,1.24,0,1,1,1.24,1.25A1.2,1.2,0,0,1,303.09,220.49Zm2.14,0a.91.91,0,1,0-.9.95A.89.89,0,0,0,305.23,220.49Z"></path><path d="M307.47,219.25v.32h-.08a.79.79,0,0,0-.82.9v1.24h-.33v-2.44h.31v.48A1,1,0,0,1,307.47,219.25Z"></path><path d="M310.16,220.59h-2a.91.91,0,0,0,1,.85,1,1,0,0,0,.75-.32l.18.22a1.19,1.19,0,0,1-.94.4,1.21,1.21,0,0,1-1.28-1.25,1.18,1.18,0,0,1,1.19-1.24,1.16,1.16,0,0,1,1.18,1.24Zm-2-.24h1.73a.87.87,0,0,0-1.73,0Z"></path><path d="M314.86,220.3v1.41h-.33v-1.38c0-.51-.26-.78-.7-.78a.78.78,0,0,0-.81.88v1.28h-.33v-1.38c0-.51-.26-.78-.71-.78a.79.79,0,0,0-.82.88v1.28h-.33v-2.44h.32v.45a1,1,0,0,1,.9-.47.88.88,0,0,1,.86.52,1.07,1.07,0,0,1,1-.52A.93.93,0,0,1,314.86,220.3Z"></path><path d="M316.89,218.5a.24.24,0,0,1,.24-.23.23.23,0,0,1,.24.23.24.24,0,0,1-.24.24A.24.24,0,0,1,316.89,218.5Zm.07.77h.33v2.44H317Z"></path><path d="M320.68,220.49a1.19,1.19,0,0,1-1.21,1.25,1.06,1.06,0,0,1-.93-.49v1.36h-.33v-3.34h.32v.48a1.07,1.07,0,0,1,.94-.5A1.18,1.18,0,0,1,320.68,220.49Zm-.32,0a.91.91,0,1,0-1.82,0,.91.91,0,1,0,1.82,0Z"></path><path d="M321,221.43l.15-.26a1.46,1.46,0,0,0,.87.28c.46,0,.65-.16.65-.4,0-.64-1.58-.14-1.58-1.1,0-.4.35-.7,1-.7a1.64,1.64,0,0,1,.86.23l-.14.27a1.26,1.26,0,0,0-.72-.21c-.44,0-.64.17-.64.4,0,.66,1.58.16,1.58,1.1,0,.42-.37.7-1,.7A1.59,1.59,0,0,1,321,221.43Z"></path><path d="M325.82,219.27v2.44h-.32v-.44a1,1,0,0,1-.87.47.94.94,0,0,1-1-1.05v-1.42h.33v1.38c0,.52.26.79.73.79a.79.79,0,0,0,.83-.89v-1.28Z"></path><path d="M330.76,220.3v1.41h-.32v-1.38c0-.51-.26-.78-.71-.78a.78.78,0,0,0-.81.88v1.28h-.33v-1.38c0-.51-.26-.78-.71-.78a.79.79,0,0,0-.81.88v1.28h-.33v-2.44h.31v.45a1,1,0,0,1,.9-.47.89.89,0,0,1,.87.52,1,1,0,0,1,1-.52A.93.93,0,0,1,330.76,220.3Z"></path><path d="M335.09,218.27v3.44h-.31v-.48a1.06,1.06,0,0,1-.94.51,1.25,1.25,0,0,1,0-2.49,1.07,1.07,0,0,1,.93.49v-1.47Zm-.32,2.22a.91.91,0,1,0-.9.95A.89.89,0,0,0,334.77,220.49Z"></path><path d="M335.76,220.49a1.25,1.25,0,1,1,1.25,1.25A1.21,1.21,0,0,1,335.76,220.49Zm2.15,0a.91.91,0,1,0-.9.95A.89.89,0,0,0,337.91,220.49Z"></path><path d="M338.92,218.27h.32v3.44h-.32Z"></path><path d="M339.92,220.49a1.24,1.24,0,1,1,1.24,1.25A1.2,1.2,0,0,1,339.92,220.49Zm2.14,0a.91.91,0,1,0-.9.95A.89.89,0,0,0,342.06,220.49Z"></path><path d="M344.3,219.25v.32h-.08a.79.79,0,0,0-.82.9v1.24h-.33v-2.44h.31v.48A1,1,0,0,1,344.3,219.25Z"></path><path d="M345.8,221.43l.15-.26a1.41,1.41,0,0,0,.87.28c.46,0,.65-.16.65-.4,0-.64-1.58-.14-1.58-1.1,0-.4.34-.7,1-.7a1.68,1.68,0,0,1,.87.23l-.15.27a1.24,1.24,0,0,0-.72-.21c-.44,0-.63.17-.63.4,0,.66,1.58.16,1.58,1.1,0,.42-.37.7-1,.7A1.58,1.58,0,0,1,345.8,221.43Z"></path><path d="M348.33,218.5a.24.24,0,0,1,.24-.23.23.23,0,0,1,.24.23.24.24,0,0,1-.24.24A.24.24,0,0,1,348.33,218.5Zm.08.77h.32v2.44h-.32Z"></path><path d="M350.94,221.56a.78.78,0,0,1-.52.18.64.64,0,0,1-.71-.71v-1.48h-.44v-.28h.44v-.53H350v.53h.74v.28H350V221a.39.39,0,0,0,.42.44.56.56,0,0,0,.36-.12Z"></path><path d="M354.59,220.2v1.51h-.32v-.38a.9.9,0,0,1-.84.41c-.55,0-.89-.29-.89-.71s.24-.7.94-.7h.78v-.14a.6.6,0,0,0-.69-.65,1.21,1.21,0,0,0-.81.29l-.15-.25a1.53,1.53,0,0,1,1-.33A.87.87,0,0,1,354.59,220.2Zm-.33.78v-.4h-.77c-.47,0-.62.19-.62.44s.23.46.61.46A.78.78,0,0,0,354.26,221Z"></path><path d="M359.51,220.3v1.41h-.33v-1.38c0-.51-.26-.78-.7-.78a.79.79,0,0,0-.82.88v1.28h-.33v-1.38c0-.51-.26-.78-.7-.78a.79.79,0,0,0-.82.88v1.28h-.33v-2.44h.32v.45a1,1,0,0,1,.89-.47.88.88,0,0,1,.87.52,1.05,1.05,0,0,1,1-.52A.93.93,0,0,1,359.51,220.3Z"></path><path d="M362.53,220.59h-2a.91.91,0,0,0,1,.85,1,1,0,0,0,.75-.32l.18.22a1.19,1.19,0,0,1-.94.4,1.21,1.21,0,0,1-1.28-1.25,1.19,1.19,0,1,1,2.38,0S362.53,220.56,362.53,220.59Zm-2-.24h1.73a.87.87,0,0,0-1.73,0Z"></path><path d="M364.49,221.56a.76.76,0,0,1-.51.18.65.65,0,0,1-.72-.71v-1.48h-.43v-.28h.43v-.53h.33v.53h.74v.28h-.74V221a.39.39,0,0,0,.42.44.54.54,0,0,0,.36-.12Z"></path><path d="M365.42,221.48a.71.71,0,0,1-.07.27l-.19.64h-.23l.16-.67a.24.24,0,0,1-.17-.24.25.25,0,0,1,.25-.25A.24.24,0,0,1,365.42,221.48Z"></path><path d="M367.08,220.49a1.2,1.2,0,0,1,1.26-1.24,1.09,1.09,0,0,1,1,.49l-.25.16a.83.83,0,0,0-.71-.36,1,1,0,0,0,0,1.9.82.82,0,0,0,.71-.35l.25.16a1.09,1.09,0,0,1-1,.49A1.21,1.21,0,0,1,367.08,220.49Z"></path><path d="M369.65,220.49a1.24,1.24,0,1,1,1.25,1.25A1.21,1.21,0,0,1,369.65,220.49Zm2.15,0a.89.89,0,0,0-.9-1,1,1,0,0,0,0,1.9A.89.89,0,0,0,371.8,220.49Z"></path><path d="M375.05,220.3v1.41h-.33v-1.38a.68.68,0,0,0-.73-.78.8.8,0,0,0-.86.88v1.28h-.33v-2.44h.32v.45a1,1,0,0,1,.93-.47A.94.94,0,0,1,375.05,220.3Z"></path><path d="M375.6,221.43l.15-.26a1.41,1.41,0,0,0,.87.28c.46,0,.65-.16.65-.4,0-.64-1.58-.14-1.58-1.1,0-.4.34-.7,1-.7a1.68,1.68,0,0,1,.87.23l-.15.27a1.24,1.24,0,0,0-.72-.21c-.44,0-.63.17-.63.4,0,.66,1.58.16,1.58,1.1,0,.42-.37.7-1,.7A1.58,1.58,0,0,1,375.6,221.43Z"></path><path d="M380.33,220.59h-2a.91.91,0,0,0,1,.85,1,1,0,0,0,.75-.32l.18.22a1.19,1.19,0,0,1-.94.4,1.21,1.21,0,0,1-1.28-1.25,1.18,1.18,0,0,1,1.19-1.24,1.16,1.16,0,0,1,1.18,1.24Zm-2-.24H380a.87.87,0,0,0-1.73,0Z"></path><path d="M380.76,220.49a1.2,1.2,0,0,1,1.26-1.24,1.06,1.06,0,0,1,1,.49l-.24.16a.85.85,0,0,0-.71-.36,1,1,0,0,0,0,1.9.84.84,0,0,0,.71-.35l.24.16a1.06,1.06,0,0,1-1,.49A1.21,1.21,0,0,1,380.76,220.49Z"></path><path d="M384.93,221.56a.78.78,0,0,1-.52.18.64.64,0,0,1-.71-.71v-1.48h-.44v-.28h.44v-.53H384v.53h.74v.28H384V221a.39.39,0,0,0,.42.44.56.56,0,0,0,.36-.12Z"></path><path d="M387.56,220.59h-2a.91.91,0,0,0,1,.85,1,1,0,0,0,.75-.32l.18.22a1.19,1.19,0,0,1-.94.4,1.21,1.21,0,0,1-1.28-1.25,1.19,1.19,0,1,1,2.38,0S387.56,220.56,387.56,220.59Zm-2-.24h1.73a.87.87,0,0,0-1.73,0Z"></path><path d="M389.52,221.56a.78.78,0,0,1-.52.18.65.65,0,0,1-.71-.71v-1.48h-.44v-.28h.44v-.53h.33v.53h.74v.28h-.74V221a.39.39,0,0,0,.42.44.54.54,0,0,0,.36-.12Z"></path><path d="M392.31,219.27v2.44H392v-.44a1,1,0,0,1-.88.47,1,1,0,0,1-1-1.05v-1.42h.33v1.38c0,.52.27.79.73.79a.79.79,0,0,0,.83-.89v-1.28Z"></path><path d="M395.36,220.59h-2a.9.9,0,0,0,1,.85.93.93,0,0,0,.74-.32l.19.22a1.29,1.29,0,0,1-2.22-.85,1.17,1.17,0,0,1,1.19-1.24,1.16,1.16,0,0,1,1.18,1.24Zm-2-.24h1.73a.87.87,0,0,0-1.73,0Z"></path><path d="M397.26,219.25v.32h-.08a.79.79,0,0,0-.82.9v1.24H396v-2.44h.32v.48A.92.92,0,0,1,397.26,219.25Z"></path><path d="M290.36,225.76v1.51h-.31v-.38a.93.93,0,0,1-.84.41c-.55,0-.89-.29-.89-.71s.24-.69.94-.69H290v-.15c0-.42-.23-.65-.69-.65a1.23,1.23,0,0,0-.81.29l-.15-.25a1.56,1.56,0,0,1,1-.33A.86.86,0,0,1,290.36,225.76Zm-.33.78v-.4h-.76c-.47,0-.63.19-.63.44s.23.46.62.46A.78.78,0,0,0,290,226.54Z"></path><path d="M293.49,223.83v3.44h-.31v-.48a1.07,1.07,0,0,1-.95.51,1.25,1.25,0,0,1,0-2.49,1.06,1.06,0,0,1,.93.49v-1.47Zm-.32,2.22a.91.91,0,1,0-.91.95A.89.89,0,0,0,293.17,226.05Z"></path><path d="M294.33,224.06a.24.24,0,0,1,.24-.23.24.24,0,0,1,.25.23.25.25,0,0,1-.49,0Zm.08.77h.33v2.44h-.33Z"></path><path d="M298.13,226.05a1.19,1.19,0,0,1-1.22,1.25,1.07,1.07,0,0,1-.93-.49v1.36h-.33v-3.34H296v.49a1.06,1.06,0,0,1,.94-.51A1.19,1.19,0,0,1,298.13,226.05Zm-.33,0a.91.91,0,1,0-1.82,0,.91.91,0,1,0,1.82,0Z"></path><path d="M298.72,224.06a.24.24,0,0,1,.24-.23.23.23,0,0,1,.24.23.24.24,0,0,1-.24.24A.24.24,0,0,1,298.72,224.06Zm.08.77h.33v2.44h-.33Z"></path><path d="M299.7,227l.15-.26a1.46,1.46,0,0,0,.87.28c.46,0,.65-.16.65-.4,0-.64-1.58-.14-1.58-1.1,0-.4.34-.7,1-.7a1.67,1.67,0,0,1,.86.23l-.14.27a1.26,1.26,0,0,0-.72-.21c-.44,0-.64.17-.64.4,0,.66,1.58.16,1.58,1.1,0,.42-.37.7-1,.7A1.59,1.59,0,0,1,299.7,227Z"></path><path d="M302.06,226.05a1.2,1.2,0,0,1,1.26-1.24,1.09,1.09,0,0,1,1,.49l-.25.16a.85.85,0,0,0-.71-.36,1,1,0,0,0,0,1.9.84.84,0,0,0,.71-.35l.25.16a1.09,1.09,0,0,1-1,.49A1.21,1.21,0,0,1,302.06,226.05Z"></path><path d="M304.84,224.06a.24.24,0,0,1,.24-.23.23.23,0,0,1,.24.23.24.24,0,0,1-.24.24A.24.24,0,0,1,304.84,224.06Zm.08.77h.33v2.44h-.33Z"></path><path d="M308.41,225.86v1.41h-.33v-1.38a.68.68,0,0,0-.73-.78.8.8,0,0,0-.86.88v1.28h-.33v-2.44h.32v.45a1,1,0,0,1,.93-.47A.94.94,0,0,1,308.41,225.86Z"></path><path d="M311.57,224.83V227a1.07,1.07,0,0,1-1.22,1.22,1.72,1.72,0,0,1-1.14-.38l.17-.25a1.43,1.43,0,0,0,1,.33c.62,0,.9-.28.9-.88v-.31a1.1,1.1,0,0,1-.95.47,1.19,1.19,0,1,1,0-2.37,1.09,1.09,0,0,1,1,.49v-.47Zm-.32,1.16a.93.93,0,1,0-.93.9A.87.87,0,0,0,311.25,226Z"></path><path d="M315.83,226.16h-2a.89.89,0,0,0,1,.84.93.93,0,0,0,.74-.32l.19.22a1.29,1.29,0,0,1-2.22-.85,1.17,1.17,0,0,1,1.19-1.24,1.16,1.16,0,0,1,1.18,1.24Zm-2-.25h1.73a.87.87,0,0,0-1.73,0Z"></path><path d="M316.5,223.83h.33v3.44h-.33Z"></path><path d="M317.67,224.06a.24.24,0,0,1,.24-.23.24.24,0,0,1,.25.23.25.25,0,0,1-.49,0Zm.08.77h.33v2.44h-.33Z"></path><path d="M320.28,227.12a.76.76,0,0,1-.51.18.65.65,0,0,1-.72-.71v-1.48h-.44v-.28h.44v-.53h.33v.53h.74v.28h-.74v1.46a.39.39,0,0,0,.42.44.54.54,0,0,0,.36-.12Z"></path><path d="M321.2,227a.66.66,0,0,1-.06.27l-.2.64h-.22l.16-.67a.24.24,0,0,1-.17-.24.25.25,0,0,1,.25-.25A.24.24,0,0,1,321.2,227Z"></path><path d="M322.78,227l.15-.26a1.41,1.41,0,0,0,.87.28c.46,0,.65-.16.65-.4,0-.64-1.58-.14-1.58-1.1,0-.4.34-.7,1-.7a1.68,1.68,0,0,1,.87.23l-.15.27a1.24,1.24,0,0,0-.72-.21c-.44,0-.63.17-.63.4,0,.66,1.58.16,1.58,1.1,0,.42-.37.7-1,.7A1.58,1.58,0,0,1,322.78,227Z"></path><path d="M327.51,226.16h-2a.91.91,0,0,0,1,.84,1,1,0,0,0,.75-.32l.18.22a1.29,1.29,0,0,1-2.22-.85,1.17,1.17,0,0,1,1.19-1.24,1.16,1.16,0,0,1,1.18,1.24Zm-2-.25h1.73a.87.87,0,0,0-1.73,0Z"></path><path d="M330.41,223.83v3.44h-.32v-.48a1,1,0,0,1-.94.51,1.25,1.25,0,0,1,0-2.49,1.06,1.06,0,0,1,.93.49v-1.47Zm-.32,2.22a.91.91,0,1,0-.91.95A.89.89,0,0,0,330.09,226.05Z"></path><path d="M334.77,223.83v3.44h-.32v-.48a1.06,1.06,0,0,1-.94.51,1.25,1.25,0,0,1,0-2.49,1.07,1.07,0,0,1,.93.49v-1.47Zm-.33,2.22a.91.91,0,1,0-.9.95A.89.89,0,0,0,334.44,226.05Z"></path><path d="M335.61,224.06a.24.24,0,1,1,.24.24A.23.23,0,0,1,335.61,224.06Zm.07.77H336v2.44h-.33Z"></path><path d="M338.77,225.76v1.51h-.32v-.38a.9.9,0,0,1-.84.41c-.55,0-.89-.29-.89-.71s.24-.69.94-.69h.78v-.15a.6.6,0,0,0-.69-.65,1.21,1.21,0,0,0-.81.29l-.15-.25a1.53,1.53,0,0,1,1-.33A.87.87,0,0,1,338.77,225.76Zm-.33.78v-.4h-.77c-.47,0-.62.19-.62.44s.23.46.61.46A.78.78,0,0,0,338.44,226.54Z"></path><path d="M343.69,225.86v1.41h-.33v-1.38c0-.51-.26-.78-.7-.78a.79.79,0,0,0-.82.88v1.28h-.33v-1.38c0-.51-.26-.78-.7-.78a.79.79,0,0,0-.82.88v1.28h-.33v-2.44H340v.45a1,1,0,0,1,.89-.47.88.88,0,0,1,.87.52,1.05,1.05,0,0,1,1-.52A.93.93,0,0,1,343.69,225.86Z"></path><path d="M346.51,225l-1.65.64,1.65.63v.39l-2.08-.82v-.4l2.08-.82Z"></path><path d="M348.22,223.37h.4l-1.53,4.37h-.4Z"></path><path d="M351.73,224v3.24h-.47v-1.44H349.4v1.44h-.47V224h.47v1.39h1.86V224Z"></path><path d="M353.44,224v3.24H353v-2.84h-.73V224Z"></path><path d="M356.31,225.45v.4l-2.08.82v-.39l1.66-.63-1.66-.64v-.38Z"></path><path d="M290.45,236.14l-1.64.63,1.64.64v.38l-2.08-.82v-.4l2.08-.82Z"></path><path d="M293.87,236.28c0,.7-.51,1.13-1.36,1.13h-.8v1h-.46v-3.24h1.26C293.36,235.15,293.87,235.57,293.87,236.28Zm-.47,0c0-.46-.31-.73-.9-.73h-.79V237h.79C293.09,237,293.4,236.74,293.4,236.28Z"></path><path d="M296.49,236.57v.4l-2.07.82v-.38l1.65-.64-1.65-.63v-.39Z"></path><path d="M300.44,236.14l-1.65.63,1.65.64v.38l-2.08-.82v-.4l2.08-.82Z"></path><path d="M301.23,235.15h.47v3.24h-.47Z"></path><path d="M305.68,238.39V236l-1.18,2h-.21l-1.18-2v2.35h-.44v-3.24h.38l1.35,2.28,1.34-2.28h.38v3.24Z"></path><path d="M309.34,236.75h.45V238a1.92,1.92,0,0,1-1.23.41,1.66,1.66,0,1,1,1.26-2.82l-.29.29a1.28,1.28,0,0,0-.94-.38,1.25,1.25,0,1,0,0,2.5,1.34,1.34,0,0,0,.76-.21Z"></path><path d="M311.62,238l.17-.36a1.67,1.67,0,0,0,1.07.38c.57,0,.81-.22.81-.5,0-.8-2-.3-2-1.5,0-.5.39-.93,1.24-.93a1.9,1.9,0,0,1,1.05.29l-.16.37a1.68,1.68,0,0,0-.89-.27c-.55,0-.79.24-.79.52,0,.79,2,.3,2,1.49,0,.49-.4.92-1.26.92A1.94,1.94,0,0,1,311.62,238Z"></path><path d="M317,238.39l-.7-1h-1v1h-.46v-3.24h1.26c.85,0,1.36.42,1.36,1.13a1,1,0,0,1-.72,1l.77,1.09Zm0-2.11c0-.46-.31-.73-.9-.73h-.79V237h.79C316.64,237,317,236.74,317,236.28Z"></path><path d="M317.9,236.77a1.64,1.64,0,0,1,1.72-1.66,1.61,1.61,0,0,1,1.24.51l-.31.29a1.18,1.18,0,0,0-.91-.39,1.25,1.25,0,1,0,0,2.5,1.21,1.21,0,0,0,.91-.39l.31.29a1.61,1.61,0,0,1-1.24.51A1.64,1.64,0,0,1,317.9,236.77Z"></path><path d="M321.34,236h2.08v.36h-2.08Zm0,1.1h2.08v.36h-2.08Z"></path><path d="M325.26,235.15h.39l0,1.25h-.33Zm.84,0h.39l0,1.25h-.33Z"></path><path d="M327.27,235.15h.46V238h1.76v.4h-2.22Z"></path><path d="M329.7,237.16a1.28,1.28,0,1,1,1.28,1.26A1.22,1.22,0,0,1,329.7,237.16Zm2.1,0a.83.83,0,1,0-1.65,0,.83.83,0,1,0,1.65,0Z"></path><path d="M334.19,235.91v.43h-.1a.74.74,0,0,0-.78.83v1.22h-.44v-2.45h.42v.41A1,1,0,0,1,334.19,235.91Z"></path><path d="M336.93,237.31h-2a.83.83,0,0,0,.89.72.91.91,0,0,0,.71-.29l.25.28a1.35,1.35,0,0,1-2.3-.86,1.21,1.21,0,0,1,1.24-1.25,1.18,1.18,0,0,1,1.21,1.27Zm-2-.32h1.58a.8.8,0,0,0-1.58,0Z"></path><path d="M341.63,237v1.41h-.44V237c0-.48-.24-.72-.64-.72s-.74.28-.74.82v1.26h-.44V237c0-.48-.23-.72-.64-.72a.72.72,0,0,0-.74.82v1.26h-.44v-2.45H338v.36a1,1,0,0,1,.84-.39.91.91,0,0,1,.86.46,1.1,1.1,0,0,1,.94-.46A1,1,0,0,1,341.63,237Z"></path><path d="M343.61,235.18a.3.3,0,0,1,.31-.3.29.29,0,1,1,0,.58A.29.29,0,0,1,343.61,235.18Zm.08.76h.45v2.45h-.45Z"></path><path d="M347.53,237.16a1.19,1.19,0,0,1-1.24,1.26,1,1,0,0,1-.86-.4v1.27H345v-3.35h.42v.39a1,1,0,0,1,.88-.42A1.19,1.19,0,0,1,347.53,237.16Zm-.45,0a.83.83,0,1,0-.83.87A.81.81,0,0,0,347.08,237.16Z"></path><path d="M347.84,238.13l.18-.35a1.56,1.56,0,0,0,.86.26c.42,0,.59-.13.59-.34,0-.55-1.56-.07-1.56-1,0-.44.4-.74,1-.74a1.75,1.75,0,0,1,.89.23l-.18.35a1.26,1.26,0,0,0-.71-.2c-.39,0-.58.15-.58.34,0,.58,1.55.11,1.55,1.06,0,.45-.4.73-1.06.73A1.68,1.68,0,0,1,347.84,238.13Z"></path><path d="M352.76,235.94v2.45h-.42V238a1,1,0,0,1-.84.4,1,1,0,0,1-1.06-1.07v-1.41h.45v1.36c0,.48.24.72.66.72a.71.71,0,0,0,.76-.81v-1.27Z"></path><path d="M357.69,237v1.41h-.45V237c0-.48-.23-.72-.63-.72s-.74.28-.74.82v1.26h-.45V237c0-.48-.23-.72-.63-.72s-.74.28-.74.82v1.26h-.44v-2.45H354v.36a1,1,0,0,1,.85-.39.9.9,0,0,1,.85.46,1.12,1.12,0,0,1,.95-.46A1,1,0,0,1,357.69,237Z"></path><path d="M358.37,235.15h.39l0,1.25h-.33Zm.84,0h.39l0,1.25h-.33Z"></path><path d="M362.28,236.57v.4l-2.08.82v-.38l1.65-.64-1.65-.63v-.39Z"></path><path d="M365,236.14l-1.65.63,1.65.64v.38L362.9,237v-.4l2.08-.82Z"></path><path d="M366.69,234.49h.4l-1.53,4.37h-.4Z"></path><path d="M370,236.28c0,.7-.51,1.13-1.36,1.13h-.8v1h-.47v-3.24h1.27C369.52,235.15,370,235.57,370,236.28Zm-.47,0c0-.46-.31-.73-.9-.73h-.79V237h.79C369.25,237,369.56,236.74,369.56,236.28Z"></path><path d="M372.65,236.57v.4l-2.08.82v-.38l1.66-.64-1.66-.63v-.39Z"></path><path d="M290.45,247.26l-1.64.63,1.64.64v.38l-2.08-.82v-.4l2.08-.82Z"></path><path d="M292.16,245.61h.41L291,250h-.4Z"></path><path d="M295.67,248.64c0,.56-.42.88-1.24.88h-1.55v-3.25h1.45c.75,0,1.17.31,1.17.84a.76.76,0,0,1-.44.72A.79.79,0,0,1,295.67,248.64Zm-2.33-2v1h1c.48,0,.75-.17.75-.52s-.27-.52-.75-.52Zm1.86,2c0-.37-.28-.54-.79-.54h-1.07v1.08h1.07C294.92,249.14,295.2,249,295.2,248.6Z"></path><path d="M296.12,247.89a1.73,1.73,0,1,1,1.73,1.66A1.65,1.65,0,0,1,296.12,247.89Zm3,0a1.26,1.26,0,1,0-1.26,1.25A1.22,1.22,0,0,0,299.11,247.89Z"></path><path d="M300.28,246.27h1.37a1.63,1.63,0,1,1,0,3.25h-1.37Zm1.34,2.84a1.22,1.22,0,1,0,0-2.44h-.88v2.44Z"></path><path d="M305.21,248.39v1.13h-.46v-1.14l-1.29-2.11h.5l1,1.71,1-1.71h.46Z"></path><path d="M308.87,247.69v.4l-2.08.82v-.38l1.65-.64-1.65-.63v-.39Z"></path><path d="M415.21,160.36c0,.15-32.09.26-71.67.26s-71.68-.11-71.68-.26,32.08-.26,71.68-.26S415.21,160.22,415.21,160.36Z" style="fill:#263238"></path><path d="M276.15,155.24a.92.92,0,1,1-.92-.92A.93.93,0,0,1,276.15,155.24Z" style="fill:#263238"></path><circle cx="278.77" cy="155.24" r="0.92" style="fill:#263238"></circle><path d="M283.24,155.24a.93.93,0,1,1-.92-.92A.93.93,0,0,1,283.24,155.24Z" style="fill:#263238"></path><path d="M281,268.78c-.14,0-.26-24.33-.26-54.33s.12-54.34.26-54.34.26,24.32.26,54.34S281.1,268.78,281,268.78Z" style="fill:#e0e0e0"></path><rect x="80.21" y="54.78" width="59.25" height="42.24" style="fill:#90CAF9"></rect><path d="M139.93,61.05c0,.14-13.38.26-29.87.26s-29.88-.12-29.88-.26,13.38-.26,29.88-.26S139.93,60.9,139.93,61.05Z" style="fill:#fff"></path><path d="M85.05,58a.81.81,0,1,1-.8-.7A.75.75,0,0,1,85.05,58Z" style="fill:#fff"></path><path d="M88,58a.74.74,0,0,1-.79.7A.71.71,0,1,1,88,58Z" style="fill:#fff"></path><ellipse cx="90.06" cy="57.96" rx="0.8" ry="0.7" style="fill:#fff"></ellipse><path d="M102.12,77.89c0,2.54-1.83,4.07-4.86,4.07h-3.2v3.76H92.8V73.81h4.46C100.29,73.81,102.12,75.34,102.12,77.89Zm-1.25,0c0-1.9-1.26-3-3.65-3H94.06v5.95h3.16C99.61,80.85,100.87,79.76,100.87,77.89Z" style="fill:#fff"></path><path d="M114.79,73.81V85.72h-1.24v-5.5H106.1v5.5h-1.26V73.81h1.26v5.31h7.45V73.81Z" style="fill:#fff"></path><path d="M128,77.89c0,2.54-1.83,4.07-4.86,4.07h-3.2v3.76h-1.26V73.81h4.46C126.16,73.81,128,75.34,128,77.89Zm-1.26,0c0-1.9-1.26-3-3.64-3h-3.16v5.95h3.16C125.47,80.85,126.73,79.76,126.73,77.89Z" style="fill:#fff"></path><rect x="402.39" y="216.3" width="53.56" height="38.18" style="fill:#90CAF9"></rect><path d="M420.45,234v7.58H418.7v-3.1h-3.44v3.1H413.5V234h1.76v3h3.44v-3Z" style="fill:#fff"></path><path d="M423.82,235.46h-2.43V234H428v1.43h-2.43v6.15h-1.75Z" style="fill:#fff"></path><path d="M438.13,234h1.76v6.15h3.8v1.43h-5.56Z" style="fill:#fff"></path><path d="M435.56,241.61v-4.54l-2.23,3.74h-.79l-2.22-3.65v4.45h-1.65V234h1.45l2.84,4.71,2.79-4.71h1.44l0,7.58Z" style="fill:#fff"></path><path d="M456.37,222c0,.09-12.09.17-27,.17s-27-.08-27-.17,12.09-.17,27-.17S456.37,221.88,456.37,222Z" style="fill:#fff"></path><path d="M406.76,219.18a.73.73,0,0,1-1.44,0,.73.73,0,0,1,1.44,0Z" style="fill:#fff"></path><path d="M409.39,219.18a.73.73,0,0,1-1.44,0,.73.73,0,0,1,1.44,0Z" style="fill:#fff"></path><path d="M412,219.18a.73.73,0,1,1-.72-.63A.68.68,0,0,1,412,219.18Z" style="fill:#fff"></path><rect x="51.78" y="215.76" width="39.49" height="28.15" style="fill:#90CAF9"></rect><path d="M91.57,219.93c0,.07-8.91.13-19.9.13s-19.91-.06-19.91-.13,8.91-.12,19.91-.12S91.57,219.86,91.57,219.93Z" style="fill:#fff"></path><path d="M55,217.88a.5.5,0,0,1-.53.46.49.49,0,0,1-.53-.46.5.5,0,0,1,.53-.47A.5.5,0,0,1,55,217.88Z" style="fill:#fff"></path><path d="M56.94,217.88a.54.54,0,0,1-1.07,0,.54.54,0,0,1,1.07,0Z" style="fill:#fff"></path><path d="M58.88,217.88a.54.54,0,1,1-.54-.47A.51.51,0,0,1,58.88,217.88Z" style="fill:#fff"></path><path d="M287.05,107.29a7.4,7.4,0,0,1,7.67-7.51,7.07,7.07,0,0,1,5.27,2l-.68.7a6.18,6.18,0,0,0-4.54-1.75,6.51,6.51,0,1,0,0,13,6.2,6.2,0,0,0,4.54-1.78l.68.7a7.09,7.09,0,0,1-5.27,2.07A7.39,7.39,0,0,1,287.05,107.29Z" style="fill:#90CAF9"></path><path d="M302,112.78l.48-.8a7.08,7.08,0,0,0,4.88,1.86c3,0,4.27-1.29,4.27-2.9,0-4.44-9.23-1.77-9.23-7.22,0-2.1,1.6-3.94,5.24-3.94a7.89,7.89,0,0,1,4.46,1.34l-.4.86a7.37,7.37,0,0,0-4.06-1.24c-2.88,0-4.16,1.33-4.16,3,0,4.44,9.23,1.82,9.23,7.19,0,2.09-1.67,3.91-5.33,3.91A7.58,7.58,0,0,1,302,112.78Z" style="fill:#90CAF9"></path><path d="M314.88,112.78l.49-.8a7.06,7.06,0,0,0,4.88,1.86c3,0,4.27-1.29,4.27-2.9,0-4.44-9.23-1.77-9.23-7.22,0-2.1,1.6-3.94,5.24-3.94a7.94,7.94,0,0,1,4.46,1.34l-.4.86a7.37,7.37,0,0,0-4.06-1.24c-2.88,0-4.17,1.33-4.17,3,0,4.44,9.24,1.82,9.24,7.19,0,2.09-1.67,3.91-5.33,3.91A7.62,7.62,0,0,1,314.88,112.78Z" style="fill:#90CAF9"></path><path d="M338.19,126.52s0-.27,0-.78,0-1.28,0-2.26c0-2,0-4.87-.06-8.56,0-7.39-.06-18-.1-31l.2.21-65.88,0h0l.26-.26c0,15.12,0,29.51,0,42.56l-.24-.24,47.4.12,13.59.06,3.63,0,.94,0h0l-.91,0-3.58,0-13.54.06-47.56.12h-.24v-.24c0-13,0-27.44,0-42.56V83.7h.27l65.88.06h.21V84c0,13-.08,23.67-.11,31.09,0,3.67,0,6.54-.05,8.52,0,1,0,1.69,0,2.21S338.19,126.52,338.19,126.52Z" style="fill:#90CAF9"></path><path d="M338.19,90.28c0,.14-14.76.26-33,.26s-33-.12-33-.26S287,90,305.23,90,338.19,90.13,338.19,90.28Z" style="fill:#90CAF9"></path><path d="M277.17,87.17a.81.81,0,1,1-.8-.7A.75.75,0,0,1,277.17,87.17Z" style="fill:#90CAF9"></path><path d="M280.1,87.17a.81.81,0,1,1-.8-.7A.75.75,0,0,1,280.1,87.17Z" style="fill:#90CAF9"></path><path d="M283,87.17a.81.81,0,1,1-.8-.7A.75.75,0,0,1,283,87.17Z" style="fill:#90CAF9"></path></g></svg>